<?xml version="1.0" standalone="no"?>
<!DOCTYPE svg PUBLIC "-//W3C//DTD SVG 20010904//EN"
 "http://www.w3.org/TR/2001/REC-SVG-20010904/DTD/svg10.dtd">
<svg version="1.0" xmlns="http://www.w3.org/2000/svg"
 width="1600.000000pt" height="900.000000pt" viewBox="0 0 1600.000000 900.000000"
 preserveAspectRatio="xMidYMid meet">

<g transform="translate(0.000000,900.000000) scale(0.100000,-0.100000)"
fill="#000000" stroke="none">
<path d="M3470 7325 c0 -8 7 -15 16 -15 14 0 14 3 4 15 -7 8 -14 15 -16 15 -2
0 -4 -7 -4 -15z"/>
<path d="M3525 7330 c-3 -6 1 -7 9 -4 18 7 21 14 7 14 -6 0 -13 -4 -16 -10z"/>
<path d="M3248 7323 c7 -3 16 -2 19 1 4 3 -2 6 -13 5 -11 0 -14 -3 -6 -6z"/>
<path d="M3317 7319 c7 -7 15 -10 18 -7 3 3 -2 9 -12 12 -14 6 -15 5 -6 -5z"/>
<path d="M3390 7240 c0 -5 7 -10 16 -10 8 0 12 5 9 10 -3 6 -10 10 -16 10 -5
0 -9 -4 -9 -10z"/>
<path d="M3471 7241 c-10 -6 -9 -10 3 -14 8 -3 18 -2 21 3 8 13 -9 20 -24 11z"/>
<path d="M3547 7239 c7 -7 15 -10 18 -7 3 3 -2 9 -12 12 -14 6 -15 5 -6 -5z"/>
<path d="M3600 7239 c0 -5 5 -7 10 -4 6 3 10 8 10 11 0 2 -4 4 -10 4 -5 0 -10
-5 -10 -11z"/>
<path d="M3640 7240 c0 -5 5 -10 11 -10 5 0 7 5 4 10 -3 6 -8 10 -11 10 -2 0
-4 -4 -4 -10z"/>
<path d="M3243 7233 c9 -2 23 -2 30 0 6 3 -1 5 -18 5 -16 0 -22 -2 -12 -5z"/>
<path d="M3325 7230 c-3 -5 -2 -10 4 -10 5 0 13 5 16 10 3 6 2 10 -4 10 -5 0
-13 -4 -16 -10z"/>
<path d="M3275 7140 c-3 -5 -1 -10 4 -10 6 0 11 5 11 10 0 6 -2 10 -4 10 -3 0
-8 -4 -11 -10z"/>
<path d="M3350 7137 c0 -4 17 -5 38 -1 52 9 54 15 4 12 -23 -2 -42 -7 -42 -11z"/>
<path d="M3473 7143 c9 -2 23 -2 30 0 6 3 -1 5 -18 5 -16 0 -22 -2 -12 -5z"/>
<path d="M3740 7061 c0 -4 11 -6 25 -3 14 2 25 6 25 8 0 2 -11 4 -25 4 -14 0
-25 -4 -25 -9z"/>
<path d="M3820 7060 l-25 -8 28 -1 c15 -1 27 4 27 9 0 6 -1 10 -2 9 -2 -1 -14
-5 -28 -9z"/>
<path d="M3485 7050 c-4 -6 6 -7 27 -3 44 8 48 13 10 13 -17 0 -34 -4 -37 -10z"/>
<path d="M3698 7053 c7 -3 16 -2 19 1 4 3 -2 6 -13 5 -11 0 -14 -3 -6 -6z"/>
<path d="M3748 6973 c6 -3 9 -9 6 -15 -4 -6 2 -5 15 1 27 15 27 16 -7 17 -15
1 -21 -1 -14 -3z"/>
<path d="M3815 6970 c-16 -7 -17 -9 -3 -9 9 -1 20 4 23 9 7 11 7 11 -20 0z"/>
<path d="M3388 6963 c7 -3 16 -2 19 1 4 3 -2 6 -13 5 -11 0 -14 -3 -6 -6z"/>
<path d="M3495 6960 c-17 -8 -17 -9 7 -7 15 1 24 5 22 9 -3 4 -6 8 -7 7 -1 0
-11 -4 -22 -9z"/>
<path d="M3541 6966 c2 -2 18 -6 34 -10 22 -5 26 -4 15 4 -14 9 -59 15 -49 6z"/>
<path d="M3625 6960 c-16 -7 -17 -9 -3 -9 9 -1 20 4 23 9 7 11 7 11 -20 0z"/>
<path d="M3677 6963 c-3 -5 8 -8 24 -8 16 0 29 3 29 8 0 4 -11 7 -24 7 -14 0
-27 -3 -29 -7z"/>
<path d="M3118 6953 c6 -2 18 -2 25 0 6 3 1 5 -13 5 -14 0 -19 -2 -12 -5z"/>
<path d="M3248 6953 c7 -3 16 -2 19 1 4 3 -2 6 -13 5 -11 0 -14 -3 -6 -6z"/>
<path d="M3782 6879 c13 -8 82 -10 74 -2 -2 3 -23 6 -46 7 -25 2 -36 0 -28 -5z"/>
<path d="M3473 6873 c9 -2 14 -9 11 -15 -4 -7 -2 -8 5 -4 15 10 4 26 -17 25
-15 -1 -15 -2 1 -6z"/>
<path d="M3516 6868 c3 -4 12 -8 20 -8 8 0 14 4 14 8 0 4 -9 8 -19 8 -11 0
-17 -4 -15 -8z"/>
<path d="M3580 6866 c7 -7 13 -7 20 0 6 6 3 10 -10 10 -13 0 -16 -4 -10 -10z"/>
<path d="M3635 6870 c4 -6 11 -8 16 -5 14 9 11 15 -7 15 -8 0 -12 -5 -9 -10z"/>
<path d="M3676 6872 c-3 -4 4 -9 15 -9 23 -2 25 3 4 10 -8 4 -16 3 -19 -1z"/>
<path d="M3750 6870 c0 -5 5 -10 11 -10 5 0 7 5 4 10 -3 6 -8 10 -11 10 -2 0
-4 -4 -4 -10z"/>
<path d="M3118 6863 c7 -3 16 -2 19 1 4 3 -2 6 -13 5 -11 0 -14 -3 -6 -6z"/>
<path d="M3255 6860 c27 -12 43 -12 25 0 -8 5 -22 9 -30 9 -10 0 -8 -3 5 -9z"/>
<path d="M3373 6862 c-6 -4 11 -7 37 -8 27 0 47 3 44 8 -6 10 -65 10 -81 0z"/>
<path d="M3318 6853 c7 -3 16 -2 19 1 4 3 -2 6 -13 5 -11 0 -14 -3 -6 -6z"/>
<path d="M3776 6791 c-5 -8 40 -9 47 -1 3 3 -6 6 -19 6 -13 1 -26 -1 -28 -5z"/>
<path d="M3865 6790 c27 -12 43 -12 25 0 -8 5 -22 9 -30 9 -10 0 -8 -3 5 -9z"/>
<path d="M3443 6783 c9 -2 23 -2 30 0 6 3 -1 5 -18 5 -16 0 -22 -2 -12 -5z"/>
<path d="M3494 6775 c-25 -19 -14 -19 22 0 16 8 22 15 13 15 -8 0 -24 -7 -35
-15z"/>
<path d="M3565 6780 c-15 -6 -11 -7 17 -7 23 1 33 4 25 9 -14 9 -16 9 -42 -2z"/>
<path d="M3638 6783 c7 -3 16 -2 19 1 4 3 -2 6 -13 5 -11 0 -14 -3 -6 -6z"/>
<path d="M3700 6780 c-9 -6 -10 -10 -3 -10 6 0 15 5 18 10 8 12 4 12 -15 0z"/>
<path d="M3280 6770 c-11 -8 -7 -9 15 -4 37 8 45 14 19 14 -10 0 -26 -5 -34
-10z"/>
<path d="M3388 6773 c6 -2 18 -2 25 0 6 3 1 5 -13 5 -14 0 -19 -2 -12 -5z"/>
<path d="M3348 6763 c7 -3 16 -2 19 1 4 3 -2 6 -13 5 -11 0 -14 -3 -6 -6z"/>
<path d="M3775 6700 c-4 -6 -11 -7 -17 -4 -7 4 -8 2 -4 -5 6 -9 11 -9 22 0 14
11 18 19 10 19 -3 0 -8 -5 -11 -10z"/>
<path d="M3440 6693 c0 -5 -17 -7 -37 -5 -21 3 -35 1 -31 -3 11 -12 90 -16 83
-5 -9 14 9 12 23 -2 6 -6 15 -9 19 -5 9 10 3 14 -30 22 -15 4 -27 3 -27 -2z"/>
<path d="M3525 6690 c11 -5 29 -8 40 -8 16 0 15 2 -5 8 -34 11 -60 11 -35 0z"/>
<path d="M3623 6693 c9 -2 23 -2 30 0 6 3 -1 5 -18 5 -16 0 -22 -2 -12 -5z"/>
<path d="M3705 6690 c-8 -13 5 -13 25 0 13 8 13 10 -2 10 -9 0 -20 -4 -23 -10z"/>
<path d="M3838 6693 c6 -2 18 -2 25 0 6 3 1 5 -13 5 -14 0 -19 -2 -12 -5z"/>
<path d="M3305 6680 c3 -5 11 -10 16 -10 6 0 7 5 4 10 -3 6 -11 10 -16 10 -6
0 -7 -4 -4 -10z"/>
<path d="M3818 6603 c6 -2 18 -2 25 0 6 3 1 5 -13 5 -14 0 -19 -2 -12 -5z"/>
<path d="M3281 6590 c-7 -4 1 -7 18 -8 17 0 31 1 31 3 0 7 -39 12 -49 5z"/>
<path d="M3347 6589 c7 -7 15 -10 18 -7 3 3 -2 9 -12 12 -14 6 -15 5 -6 -5z"/>
<path d="M3388 6593 c7 -3 16 -2 19 1 4 3 -2 6 -13 5 -11 0 -14 -3 -6 -6z"/>
<path d="M3430 6588 c0 -4 6 -8 14 -8 8 0 17 4 20 8 2 4 -4 8 -15 8 -10 0 -19
-4 -19 -8z"/>
<path d="M3698 6593 c12 -2 30 -2 40 0 9 3 -1 5 -23 4 -22 0 -30 -2 -17 -4z"/>
<path d="M3795 6510 c3 -5 11 -10 16 -10 6 0 7 5 4 10 -3 6 -11 10 -16 10 -6
0 -7 -4 -4 -10z"/>
<path d="M3365 6500 c-16 -7 -17 -9 -3 -9 9 -1 20 4 23 9 7 11 7 11 -20 0z"/>
<path d="M3465 6500 l-30 -8 30 -1 c17 0 37 4 45 9 13 9 13 10 0 9 -8 -1 -28
-5 -45 -9z"/>
<path d="M3568 6503 c6 -2 18 -2 25 0 6 3 1 5 -13 5 -14 0 -19 -2 -12 -5z"/>
<path d="M3688 6503 c7 -3 16 -2 19 1 4 3 -2 6 -13 5 -11 0 -14 -3 -6 -6z"/>
<path d="M3728 6503 c7 -3 16 -2 19 1 4 3 -2 6 -13 5 -11 0 -14 -3 -6 -6z"/>
<path d="M3750 6426 c0 -2 7 -7 16 -10 8 -3 12 -2 9 4 -6 10 -25 14 -25 6z"/>
<path d="M3410 6410 c-35 -7 -35 -7 -5 -9 17 0 37 4 45 9 17 11 11 11 -40 0z"/>
<path d="M3495 6410 c-17 -8 -17 -9 7 -7 15 1 24 5 22 9 -3 4 -6 8 -7 7 -1 0
-11 -4 -22 -9z"/>
<path d="M3550 6410 c0 -5 4 -10 9 -10 6 0 13 5 16 10 3 6 -1 10 -9 10 -9 0
-16 -4 -16 -10z"/>
<path d="M3615 6410 l-30 -8 33 -1 c17 0 32 4 32 9 0 6 -1 9 -2 9 -2 -1 -16
-5 -33 -9z"/>
<path d="M3690 6410 c0 -5 5 -10 10 -10 6 0 10 5 10 10 0 6 -4 10 -10 10 -5 0
-10 -4 -10 -10z"/>
<path d="M3323 6403 c9 -2 23 -2 30 0 6 3 -1 5 -18 5 -16 0 -22 -2 -12 -5z"/>
<path d="M3658 6333 c7 -3 16 -2 19 1 4 3 -2 6 -13 5 -11 0 -14 -3 -6 -6z"/>
<path d="M3685 6325 c-16 -8 -23 -14 -14 -15 8 0 24 7 35 15 23 18 18 18 -21
0z"/>
<path d="M3428 6323 c-43 -7 -33 -19 15 -18 71 3 74 4 57 15 -15 10 -24 10
-72 3z m55 -10 c-7 -2 -19 -2 -25 0 -7 3 -2 5 12 5 14 0 19 -2 13 -5z"/>
<path d="M3569 6319 c14 -5 28 -6 32 -2 4 4 -6 9 -24 10 -30 1 -31 1 -8 -8z"/>
<path d="M3168 6313 c7 -3 16 -2 19 1 4 3 -2 6 -13 5 -11 0 -14 -3 -6 -6z"/>
<path d="M3251 6316 c2 -2 20 -6 39 -10 25 -4 31 -3 20 4 -14 9 -69 15 -59 6z"/>
<path d="M3628 6313 c7 -3 16 -2 19 1 4 3 -2 6 -13 5 -11 0 -14 -3 -6 -6z"/>
<path d="M3406 6225 c-3 -8 -1 -15 4 -15 13 0 22 18 11 24 -5 3 -11 -1 -15 -9z"/>
<path d="M3450 6230 c-8 -5 -12 -11 -10 -14 3 -2 14 2 24 10 22 15 10 19 -14
4z"/>
<path d="M3550 6230 c0 -5 4 -10 9 -10 6 0 13 5 16 10 3 6 -1 10 -9 10 -9 0
-16 -4 -16 -10z"/>
<path d="M3118 6223 c7 -3 16 -2 19 1 4 3 -2 6 -13 5 -11 0 -14 -3 -6 -6z"/>
<path d="M3218 6223 c7 -3 16 -2 19 1 4 3 -2 6 -13 5 -11 0 -14 -3 -6 -6z"/>
<path d="M3265 6220 c3 -5 10 -10 16 -10 5 0 9 5 9 10 0 6 -7 10 -16 10 -8 0
-12 -4 -9 -10z"/>
<path d="M3310 6220 c0 -5 7 -7 15 -4 8 4 15 8 15 10 0 2 -7 4 -15 4 -8 0 -15
-4 -15 -10z"/>
<path d="M3480 6220 c-13 -8 -13 -10 2 -10 9 0 20 5 23 10 8 13 -5 13 -25 0z"/>
<path d="M3881 5976 c-151 -68 -276 -127 -277 -132 -2 -5 55 -55 127 -112
l129 -103 -43 -54 c-23 -29 -51 -57 -62 -63 -40 -19 -121 -101 -148 -149 -14
-28 -32 -81 -39 -120 -10 -60 -9 -80 5 -138 29 -118 93 -197 203 -251 52 -26
70 -29 149 -29 116 1 190 32 265 111 78 83 95 127 96 259 1 61 2 116 3 123 1
9 46 12 187 12 l186 0 -5 -27 c-4 -16 -11 -67 -18 -115 -27 -199 39 -372 166
-439 39 -21 47 -22 55 -9 14 22 12 27 -13 34 -40 10 -105 75 -134 134 -24 51
-28 70 -30 177 -2 71 2 145 9 180 12 57 14 60 46 63 17 2 32 8 32 13 0 5 -96
130 -213 277 -117 147 -250 315 -297 374 -47 60 -89 108 -95 107 -5 0 -134
-55 -284 -123z m133 -267 c31 -5 78 -19 104 -30 51 -22 132 -84 132 -101 0 -6
-12 1 -26 16 -52 51 -129 80 -228 84 -91 4 -114 11 -102 31 9 14 46 14 120 0z"/>
<path d="M3223 5693 c-105 -187 -192 -578 -233 -1053 -30 -354 -29 -964 3
-1135 85 -454 197 -802 359 -1113 123 -236 336 -523 450 -603 l28 -20 -9 25
c-6 13 -21 46 -34 73 -113 225 -230 594 -278 878 -23 135 -38 455 -22 455 6 0
44 -39 85 -87 41 -49 146 -171 234 -273 88 -102 193 -225 234 -275 280 -337
538 -591 777 -763 132 -95 322 -194 418 -218 l30 -7 -30 36 c-17 19 -91 102
-166 184 -784 857 -1216 1657 -1149 2125 11 82 14 90 50 122 48 43 138 95 327
190 147 73 502 236 670 306 45 19 80 36 79 38 -2 1 -57 -11 -124 -27 -211 -52
-321 -66 -517 -66 -139 0 -201 4 -270 19 -373 78 -626 297 -773 671 -45 114
-81 264 -93 385 -6 58 -14 120 -18 139 l-6 33 -22 -39z"/>
<path d="M5872 4081 c-119 -34 -214 -118 -269 -237 -23 -50 -27 -73 -27 -149
-1 -78 3 -98 27 -149 77 -166 227 -258 422 -259 154 0 268 48 361 154 75 85
98 153 92 271 -4 77 -9 103 -32 147 -57 111 -161 195 -281 227 -70 19 -217 16
-293 -5z m294 -186 c70 -41 98 -93 103 -186 2 -65 -1 -86 -19 -123 -39 -81
-117 -126 -219 -126 -88 0 -130 16 -183 70 -37 39 -48 59 -58 104 -27 129 38
251 150 285 61 18 174 6 226 -24z"/>
<path d="M11083 4085 c-117 -32 -222 -115 -277 -220 -29 -57 -31 -66 -31 -170
0 -102 2 -114 30 -170 77 -152 232 -239 423 -237 234 2 406 138 443 350 21
118 -24 244 -121 336 -64 61 -114 90 -197 111 -71 19 -201 18 -270 0z m262
-182 c82 -43 119 -108 119 -208 0 -148 -90 -235 -244 -235 -154 0 -240 82
-240 231 0 116 47 188 147 225 53 20 167 13 218 -13z"/>
<path d="M4580 3695 l0 -396 103 3 102 3 5 233 5 234 99 -116 c57 -66 107
-116 117 -116 10 0 60 49 116 116 l98 116 3 -236 2 -236 105 0 105 0 -2 393
-3 392 -90 2 -90 2 -119 -139 c-65 -77 -122 -140 -126 -140 -4 0 -62 63 -129
140 l-121 140 -90 0 -90 0 0 -395z"/>
<path d="M6463 4078 c21 -55 374 -785 382 -790 5 -4 24 -8 40 -8 17 0 35 4 40
8 11 7 366 780 365 795 0 4 -48 7 -107 7 l-108 0 -29 -68 c-88 -207 -159 -362
-166 -362 -4 0 -12 12 -18 28 -5 15 -49 111 -97 215 l-88 187 -110 0 c-83 0
-108 -3 -104 -12z"/>
<path d="M7380 3695 l0 -395 295 0 296 0 -3 73 -3 72 -193 3 -193 2 3 88 3 87
178 3 177 2 0 75 0 75 -177 2 -178 3 0 75 0 75 188 3 187 2 0 75 0 75 -290 0
-290 0 0 -395z"/>
<path d="M8462 3863 c-50 -126 -120 -300 -156 -388 -36 -88 -66 -164 -66 -168
0 -4 48 -6 106 -5 l107 3 26 70 27 70 178 0 177 0 31 -72 30 -73 105 0 c95 0
105 2 101 18 -3 9 -80 187 -173 395 l-167 377 -117 0 -117 0 -92 -227z m284
-140 c24 -58 44 -110 44 -114 0 -5 -49 -9 -110 -9 -60 0 -110 4 -110 9 0 7 45
131 90 246 l12 30 14 -28 c9 -16 35 -76 60 -134z"/>
<path d="M9227 4084 c-4 -4 -7 -182 -7 -396 l0 -389 253 3 c248 3 253 3 302
29 90 46 132 141 111 254 -8 43 -72 117 -116 135 l-30 12 39 39 c91 87 59 225
-65 289 -47 24 -57 25 -264 28 -118 2 -219 0 -223 -4z m368 -166 c37 -32 37
-83 1 -115 -23 -19 -38 -23 -97 -23 l-69 0 0 80 0 80 69 0 c58 0 74 -4 96 -22z
m17 -298 c68 -19 89 -85 44 -137 -23 -27 -29 -28 -125 -31 l-101 -4 0 84 c0
47 3 88 7 91 10 11 134 8 175 -3z"/>
<path d="M10030 3695 l0 -395 100 0 100 0 0 149 c0 168 4 178 67 168 63 -11
85 -39 172 -229 l40 -88 110 0 110 0 -59 130 c-65 143 -81 171 -119 213 -25
28 -26 29 -6 39 166 92 121 346 -70 397 -22 6 -129 11 -242 11 l-203 0 0 -395z
m369 230 c49 -25 57 -90 16 -131 -23 -23 -31 -25 -102 -22 l-78 3 -3 69 c-2
38 -1 75 2 83 7 18 128 18 165 -2z"/>
<path d="M11993 4073 c-3 -10 -21 -55 -40 -101 -19 -46 -88 -216 -153 -378
l-119 -294 109 0 108 0 27 75 28 75 176 0 177 0 30 -72 29 -73 108 -3 c59 -1
107 0 107 3 0 8 -305 694 -331 748 l-19 37 -116 0 c-100 0 -115 -2 -121 -17z
m193 -337 c30 -71 52 -131 50 -133 -2 -2 -53 -2 -113 -1 l-110 3 50 133 c27
73 54 131 59 130 6 -2 34 -62 64 -132z"/>
<path d="M12670 3695 l0 -395 215 0 c230 0 291 8 370 47 73 37 101 61 140 117
47 69 69 160 62 256 -9 133 -66 234 -167 299 -92 59 -159 71 -409 71 l-211 0
0 -395z m465 214 c35 -18 59 -39 80 -74 28 -45 30 -56 30 -139 0 -81 -3 -96
-28 -138 -41 -71 -96 -99 -207 -107 -48 -3 -99 -4 -111 -1 l-24 6 -3 229 c-1
126 0 236 3 243 4 11 28 13 108 10 86 -2 111 -7 152 -29z"/>
<path d="M4992 2858 l3 -93 53 -3 c37 -2 62 2 78 13 25 16 32 53 13 72 -8 8
-8 17 0 31 24 45 -11 72 -94 72 l-56 0 3 -92z m115 46 c7 -20 -13 -34 -49 -34
-23 0 -28 4 -28 25 0 22 4 25 35 25 23 0 38 -6 42 -16z m8 -74 c12 -19 -16
-40 -51 -40 -30 0 -34 3 -34 25 0 22 4 25 39 25 22 0 43 -5 46 -10z"/>
<path d="M5430 2855 l0 -95 70 0 c56 0 70 3 70 15 0 11 -12 15 -50 15 -47 0
-50 2 -50 25 0 23 4 25 46 25 38 0 45 3 42 18 -2 12 -15 18 -46 20 -34 3 -42
7 -42 23 0 16 7 19 50 19 38 0 50 4 50 15 0 12 -14 15 -70 15 l-70 0 0 -95z"/>
<path d="M6170 2935 c0 -9 9 -15 25 -15 23 0 24 -3 27 -77 3 -65 6 -78 21 -81
15 -3 17 6 17 77 0 80 0 81 25 81 16 0 25 6 25 15 0 12 -14 15 -70 15 -56 0
-70 -3 -70 -15z"/>
<path d="M6590 2855 c0 -86 2 -96 18 -93 12 2 18 14 20 41 3 36 4 37 43 37 39
0 39 0 39 -40 0 -29 4 -40 15 -40 12 0 15 17 15 95 0 78 -3 95 -15 95 -10 0
-15 -10 -15 -34 0 -30 -3 -34 -30 -38 -38 -6 -47 1 -52 37 -2 19 -10 31 -20
33 -16 3 -18 -7 -18 -93z"/>
<path d="M7030 2855 l0 -95 70 0 c56 0 70 3 70 15 0 11 -12 15 -50 15 -47 0
-50 2 -50 25 0 23 4 25 46 25 38 0 45 3 42 18 -2 12 -15 18 -46 20 -34 3 -42
7 -42 23 0 16 7 19 50 19 38 0 50 4 50 15 0 12 -14 15 -70 15 l-70 0 0 -95z"/>
<path d="M7814 2938 c-69 -33 -51 -156 26 -173 41 -9 89 19 90 53 0 18 -21 15
-46 -9 -42 -39 -80 -4 -72 67 4 38 53 58 73 31 13 -18 45 -23 45 -7 0 6 -9 19
-20 30 -21 21 -62 25 -96 8z"/>
<path d="M8220 2855 c0 -78 3 -95 15 -95 11 0 15 11 15 40 l0 40 40 0 40 0 0
-41 c0 -33 3 -40 18 -37 14 3 17 17 20 96 3 87 2 92 -18 92 -16 0 -20 -6 -20
-35 0 -34 -1 -35 -40 -35 -39 0 -40 1 -40 35 0 24 -5 35 -15 35 -12 0 -15 -17
-15 -95z"/>
<path d="M8699 2923 c-32 -83 -59 -156 -59 -159 0 -13 31 -1 40 16 8 15 21 20
49 20 30 0 40 -4 44 -20 5 -18 37 -30 37 -14 0 10 -49 143 -60 165 -15 27 -39
23 -51 -8z m45 -85 c-3 -5 -12 -8 -20 -8 -15 0 -18 18 -7 45 5 15 8 14 19 -6
7 -13 10 -27 8 -31z"/>
<path d="M9100 2855 c0 -76 3 -95 15 -95 10 0 15 15 17 58 l3 57 38 -58 c26
-40 43 -57 55 -55 15 3 17 16 17 93 0 78 -2 90 -17 93 -16 3 -18 -5 -18 -60
l0 -63 -40 63 c-57 90 -70 84 -70 -33z"/>
<path d="M9575 2938 c-33 -18 -45 -40 -45 -85 0 -72 55 -107 131 -84 37 11 39
14 39 51 0 40 0 40 -40 40 -29 0 -40 -4 -40 -15 0 -8 9 -15 19 -15 31 0 35
-19 7 -32 -55 -25 -101 32 -74 90 16 32 52 40 78 17 10 -9 27 -15 37 -13 16 3
15 7 -9 31 -29 29 -68 35 -103 15z"/>
<path d="M9990 2855 l0 -96 67 3 c84 4 99 25 21 30 -46 3 -53 6 -56 26 -3 20
0 22 47 22 37 0 51 4 51 14 0 17 -22 26 -67 26 -27 0 -34 4 -31 18 2 13 15 18
56 20 78 5 62 26 -21 30 l-67 3 0 -96z"/>
<path d="M10734 2937 c-3 -8 -4 -49 -2 -93 2 -65 6 -79 20 -82 14 -3 17 7 20
60 l3 63 15 -60 c12 -46 20 -61 36 -63 17 -2 23 7 36 60 l16 63 1 -63 c1 -55
3 -63 19 -60 14 3 17 17 20 96 l3 93 -33 -3 c-29 -3 -33 -7 -44 -51 -7 -27
-15 -51 -17 -54 -3 -2 -11 21 -18 51 -11 52 -14 56 -41 56 -16 0 -31 -6 -34
-13z"/>
<path d="M11256 2942 c-8 -14 -66 -166 -66 -174 0 -17 32 -7 37 12 4 16 14 20
44 20 28 0 41 -5 49 -20 14 -25 44 -27 36 -2 -46 141 -80 196 -100 164z m34
-94 c0 -20 -2 -21 -24 -12 -12 5 -13 10 -4 30 12 26 28 16 28 -18z"/>
<path d="M11642 2858 c3 -79 6 -93 21 -96 13 -3 17 3 17 25 0 28 15 53 32 53
4 0 17 -18 28 -40 16 -31 26 -40 46 -40 28 0 28 -1 -19 68 l-29 44 31 39 c26
32 29 39 14 39 -9 0 -37 -19 -60 -42 l-43 -42 0 42 c0 36 -3 42 -20 42 -20 0
-21 -5 -18 -92z"/>
<path d="M12080 2855 l0 -95 70 0 c56 0 70 3 70 15 0 11 -12 15 -50 15 -47 0
-50 2 -50 25 0 23 4 25 45 25 39 0 45 3 45 21 0 18 -5 20 -42 17 -38 -3 -43 0
-46 20 -3 20 0 22 47 22 39 0 51 4 51 15 0 12 -14 15 -70 15 l-70 0 0 -95z"/>
<path d="M12510 2855 c0 -78 3 -95 15 -95 11 0 15 11 15 40 0 22 4 40 9 40 23
0 42 -14 62 -46 12 -20 29 -34 40 -34 25 0 24 6 -7 47 l-26 35 21 14 c12 8 21
26 21 39 0 35 -36 55 -97 55 l-53 0 0 -95z m105 40 c0 -16 -8 -21 -37 -23 -35
-3 -38 -1 -38 23 0 24 3 26 38 23 29 -2 37 -7 37 -23z"/>
<path d="M8130 2369 c-655 -16 -1373 -68 -1835 -135 -168 -24 -464 -80 -474
-90 -7 -7 14 -5 117 11 248 36 894 89 1407 115 822 40 2251 40 3080 0 462 -23
817 -50 1353 -105 133 -14 -114 35 -348 69 -782 114 -2046 165 -3300 135z"/>
<path d="M11848 2153 c7 -3 16 -2 19 1 4 3 -2 6 -13 5 -11 0 -14 -3 -6 -6z"/>
</g>
</svg>
